<svg width="56" height="24" viewBox="0 0 56 24" fill="none" xmlns="http://www.w3.org/2000/svg">
<rect opacity="0.3" width="56" height="24" rx="12" fill="black"/>
<circle cx="12" cy="12" r="11" fill="white"/>
<path d="M31.338 17.18C33.924 17.18 35.322 15.338 35.322 12.68C35.322 10.022 33.924 8.18 31.338 8.18C28.758 8.18 27.36 10.022 27.36 12.68C27.36 15.338 28.758 17.18 31.338 17.18ZM31.338 16.334C29.31 16.322 28.278 14.84 28.296 12.68C28.314 10.52 29.31 9.02 31.338 9.026C33.366 9.038 34.386 10.52 34.386 12.68C34.386 14.84 33.366 16.34 31.338 16.334ZM43.5136 8.924V8.18H42.6856C42.1876 8.18 41.6536 8.228 41.2636 8.654C40.9096 9.038 40.8616 9.542 40.8616 10.04V10.52H38.0476V9.944C38.0476 9.242 38.3776 8.924 39.0496 8.924H39.8176V8.18H38.9896C38.4916 8.18 37.9576 8.228 37.5676 8.654C37.2136 9.038 37.1656 9.542 37.1656 10.04V10.52H36.0436V11.276H37.1656V17H38.0476V11.276H40.8616V17H41.7436V11.276H43.5136V10.52H41.7436V9.944C41.7436 9.242 42.0736 8.924 42.7456 8.924H43.5136Z" fill="white"/>
</svg>
