<svg width="56" height="24" viewBox="0 0 56 24" fill="none" xmlns="http://www.w3.org/2000/svg">
<rect width="56" height="24" rx="12" fill="black"/>
<circle cx="44" cy="12" r="11" fill="white"/>
<path d="M15.338 17.18C17.924 17.18 19.322 15.338 19.322 12.68C19.322 10.022 17.924 8.18 15.338 8.18C12.758 8.18 11.36 10.022 11.36 12.68C11.36 15.338 12.758 17.18 15.338 17.18ZM15.338 16.334C13.31 16.322 12.278 14.84 12.296 12.68C12.314 10.52 13.31 9.02 15.338 9.026C17.366 9.038 18.386 10.52 18.386 12.68C18.386 14.84 17.366 16.34 15.338 16.334ZM23.4936 10.358C22.5636 10.358 21.7956 10.718 21.3156 11.42V10.52H20.5176V17H21.4056V13.544C21.4056 12.08 22.0776 11.198 23.3256 11.198C24.6816 11.198 25.2036 12.266 25.2036 13.694V17H26.0916V13.436C26.0916 11.978 25.4376 10.358 23.4936 10.358Z" fill="white"/>
</svg>
